# xmcd
#
# Track frame offsets:
#	150
#	10603
#	27553
#	37590
#	46532
#	63004
#	78617
#	87040
#	96897
#	109400
#
# Disc length: 1625 seconds
#
# Revision: 1
# Processed by: cddbd v1.5.2PL0 Copyright (c) Steve Scherf et al.
# Submitted via: dBpowerAMP V4.0
#
DISCID=6606570a
DTITLE=Bubba Claus - Country Christmas Album
DYEAR=2004
DGENRE=Country
TTITLE0=Here Comes Bubba Claus
TTITLE1=Elves Have Jolly Faces
TTITLE2=Maxin' Out Our Credit Once Again
TTITLE3=Frosty The Beer Mug
TTITLE4=Christmas Tradition
TTITLE5=Down In The Trailer Park
TTITLE6=Hold It In, Hold It In, Hold It In
TTITLE7=Christmas Time Blues
TTITLE8=Santa Looked A Lot like Daddy
TTITLE9=Merry Merry Christmas
EXTD=
EXTT0=
EXTT1=
EXTT2=
EXTT3=
EXTT4=
EXTT5=
EXTT6=
EXTT7=
EXTT8=
EXTT9=
PLAYORDER=
